<svg
  xmlns="http://www.w3.org/2000/svg"
  width="279"
  height="279"
  fill="none"
  xmlns:v="https://vecta.io/nano"
>
  <path
    fill-rule="evenodd"
    d="M232.97 42.874c2.569-14.89 6.339-24.253 10.515-24.271h.008c7.787.027 14.099 32.499 14.099 72.59s-6.321 72.59-14.116 72.59c-3.196 0-6.145-5.518-8.519-14.765-3.752 33.85-11.538 57.119-20.552 57.119-6.974 0-13.233-13.978-17.435-36.022-2.869 41.924-10.09 71.669-18.53 71.669-5.297 0-10.126-11.787-13.701-30.979-4.299 39.617-14.231 67.376-25.813 67.376s-21.532-27.75-25.813-67.376c-3.549 19.192-8.378 30.979-13.701 30.979-8.44 0-15.643-29.745-18.53-71.669-4.202 22.044-10.443 36.022-17.435 36.022-9.004 0-16.8-23.261-20.551-57.119-2.357 9.274-5.323 14.765-8.519 14.765-7.795 0-14.116-32.498-14.116-72.59s6.321-72.59 14.116-72.59c4.184 0 7.928 9.39 10.523 24.271C49.057 17.199 55.81.511 63.447.511c9.066 0 16.923 23.6 20.64 57.87 3.637-24.942 9.155-40.842 15.334-40.842 8.66 0 16.022 31.274 18.75 74.897 5.129-22.366 12.554-36.398 20.773-36.398s15.643 14.04 20.763 36.398c2.737-43.624 10.09-74.897 18.751-74.897 6.17 0 11.679 15.901 15.334 40.843C197.5 24.111 205.357.511 214.423.511c7.61 0 14.389 16.697 18.547 42.363zM.089 84.053c0-17.922 3.584-32.454 8.007-32.454s8.007 14.532 8.007 32.454-3.584 32.454-8.007 32.454S.089 101.974.089 84.053zm261.654 0c0-17.922 3.584-32.454 8.007-32.454s8.007 14.532 8.007 32.454-3.585 32.454-8.007 32.454-8.007-14.533-8.007-32.454z"
    fill="#000"
  />
</svg>
