<?xml version="1.0" encoding="UTF-8" standalone="no"?>
<!-- Uploaded to: SVG Repo, www.svgrepo.com, Generator: SVG Repo Mixer Tools -->

<svg
   fill="#000000"
   height="800px"
   width="800px"
   version="1.1"
   id="图层_1"
   viewBox="0 0 40 40"
   enable-background="new 0 0 40 40"
   xml:space="preserve"
   sodipodi:docname="form.svg"
   inkscape:version="1.4 (86a8ad7, 2024-10-11)"
   xmlns:inkscape="http://www.inkscape.org/namespaces/inkscape"
   xmlns:sodipodi="http://sodipodi.sourceforge.net/DTD/sodipodi-0.dtd"
   xmlns="http://www.w3.org/2000/svg"
   xmlns:svg="http://www.w3.org/2000/svg"><defs
   id="defs7" /><sodipodi:namedview
   id="namedview7"
   pagecolor="#505050"
   bordercolor="#eeeeee"
   borderopacity="1"
   inkscape:showpageshadow="0"
   inkscape:pageopacity="0"
   inkscape:pagecheckerboard="0"
   inkscape:deskcolor="#505050"
   inkscape:zoom="0.96625"
   inkscape:cx="400.51746"
   inkscape:cy="400"
   inkscape:window-width="1920"
   inkscape:window-height="991"
   inkscape:window-x="-9"
   inkscape:window-y="-9"
   inkscape:window-maximized="1"
   inkscape:current-layer="图层_1" />
<g
   id="g7"
   transform="matrix(2.4930615,0,0,2.4720416,-29.844392,-29.315484)">
	<g
   id="g6">
		<g
   id="g1">
			<path
   d="m 22,13 h 2 c 1.4,0 2.5,1.1 2.5,2.5 v 10 c 0,1.4 -1.1,2.5 -2.5,2.5 h -8 c -1.4,0 -2.5,-1.1 -2.5,-2.5 v -10 C 13.5,14.1 14.6,13 16,13 h 2 v 1 h -2 c -0.8,0 -1.5,0.7 -1.5,1.5 v 10 c 0,0.8 0.7,1.5 1.5,1.5 h 8 c 0.8,0 1.5,-0.7 1.5,-1.5 v -10 C 25.5,14.7 24.8,14 24,14 h -2 z"
   id="path1" />
		</g>
		<g
   id="g2">
			<path
   d="M 21.3,16 H 18.6 C 18,16 17.4,15.5 17.4,14.8 v -1.7 c 0,-0.6 0.5,-1.2 1.2,-1.2 h 2.7 c 0.6,0 1.2,0.5 1.2,1.2 v 1.7 c 0,0.7 -0.5,1.2 -1.2,1.2 z m -2.6,-3 c -0.1,0 -0.2,0.1 -0.2,0.2 v 1.7 c 0,0.1 0.1,0.2 0.2,0.2 h 2.7 c 0.1,0 0.2,-0.1 0.2,-0.2 V 13.2 C 21.6,13.1 21.5,13 21.4,13 Z"
   id="path2" />
		</g>
		<g
   id="g3">
			<path
   d="m 23,25 h -6 c -0.3,0 -0.5,-0.2 -0.5,-0.5 0,-0.3 0.2,-0.5 0.5,-0.5 h 6 c 0.3,0 0.5,0.2 0.5,0.5 0,0.3 -0.2,0.5 -0.5,0.5 z"
   id="path3" />
		</g>
		<g
   id="g4">
			<path
   d="m 23,22 h -6 c -0.3,0 -0.5,-0.2 -0.5,-0.5 0,-0.3 0.2,-0.5 0.5,-0.5 h 6 c 0.3,0 0.5,0.2 0.5,0.5 0,0.3 -0.2,0.5 -0.5,0.5 z"
   id="path4" />
		</g>
		<g
   id="g5">
			<path
   d="m 23,19 h -6 c -0.3,0 -0.5,-0.2 -0.5,-0.5 0,-0.3 0.2,-0.5 0.5,-0.5 h 6 c 0.3,0 0.5,0.2 0.5,0.5 0,0.3 -0.2,0.5 -0.5,0.5 z"
   id="path5" />
		</g>
	</g>
</g>
</svg>
