<svg
  xmlns="http://www.w3.org/2000/svg"
  fill="#000000"
  height="800"
  width="800"
  viewBox="0 0 40 40"
  xmlns:v="https://vecta.io/nano"
>
  <path
    d="M25.003 2.821h4.986c3.49 0 6.233 2.719 6.233 6.18v24.72c0 3.461-2.742 6.18-6.233 6.18H10.045c-3.49 0-6.233-2.719-6.233-6.18V9.001c0-3.461 2.742-6.18 6.233-6.18h4.986v2.472h-4.986c-1.994 0-3.74 1.73-3.74 3.708v24.72c0 1.978 1.745 3.708 3.74 3.708h19.944c1.994 0 3.74-1.73 3.74-3.708V9.001c0-1.978-1.745-3.708-3.74-3.708h-4.986z"
  />
  <path
    d="M23.258 10.237h-6.731c-1.496 0-2.992-1.236-2.992-2.966V3.068c0-1.483 1.247-2.966 2.992-2.966h6.731c1.496 0 2.992 1.236 2.992 2.966v4.202c0 1.73-1.247 2.966-2.992 2.966zm-6.482-7.416c-.249 0-.499.247-.499.494v4.202c0 .247.249.494.499.494h6.731c.249 0 .499-.247.499-.494V3.315c0-.247-.249-.494-.499-.494z"
  />
  <use href="#B" />
  <use href="#B" y="-7.417" />
  <use href="#B" y="-14.833" />
  <defs>
    <path
      id="B"
      d="M27.496 32.486H12.538c-.748 0-1.247-.494-1.247-1.236s.499-1.236 1.247-1.236h14.958c.748 0 1.247.494 1.247 1.236s-.499 1.236-1.247 1.236z"
    />
  </defs>
</svg>
