<svg
  xmlns="http://www.w3.org/2000/svg"
  width="800"
  height="800"
  viewBox="0 0 24 24"
  fill="#000"
  fill-rule="evenodd"
  xmlns:v="https://vecta.io/nano"
>
  <path
    d="M12 2l-4.123.06c-1.065.049-1.792.218-2.428.465a4.9 4.9 0 0 0-1.771 1.153c-.509.499-.902 1.104-1.153 1.771-.246.636-.416 1.364-.465 2.429L2 12l.06 4.123c.049 1.065.218 1.792.465 2.428a4.9 4.9 0 0 0 1.153 1.771c.499.509 1.104.902 1.771 1.153.636.247 1.363.416 2.428.465L12 22l4.123-.06c1.065-.049 1.792-.218 2.428-.465a4.9 4.9 0 0 0 1.771-1.153c.509-.499.902-1.104 1.153-1.771.247-.636.416-1.363.465-2.428L22 12l-.06-4.123c-.049-1.065-.218-1.792-.465-2.428-.251-.667-.645-1.272-1.153-1.771-.499-.509-1.104-.902-1.771-1.153-.636-.246-1.364-.416-2.429-.465L12 2zm0 1.802l4.041.058c.975.045 1.504.207 1.857.345a3.1 3.1 0 0 1 1.15.747 3.07 3.07 0 0 1 .747 1.15c.137.353.3.882.345 1.857L20.198 12l-.058 4.041c-.045.975-.207 1.504-.345 1.857a3.1 3.1 0 0 1-.747 1.15 3.1 3.1 0 0 1-1.15.747c-.353.137-.882.3-1.857.345L12 20.198c-2.671 0-2.987-.01-4.041-.058-.975-.045-1.504-.207-1.857-.345a3.1 3.1 0 0 1-1.15-.747 3.1 3.1 0 0 1-.747-1.15c-.137-.353-.3-.882-.345-1.857L3.802 12l.058-4.041c.045-.975.207-1.504.345-1.857a3.1 3.1 0 0 1 .747-1.15 3.1 3.1 0 0 1 1.15-.747c.353-.137.882-.3 1.857-.345L12 3.802zm0 11.535c-.438 0-.872-.086-1.277-.254a3.34 3.34 0 0 1-1.806-1.806c-.168-.405-.254-.839-.254-1.277s.086-.872.254-1.277.413-.773.723-1.082.678-.556 1.082-.723a3.35 3.35 0 0 1 1.277-.254c.885 0 1.734.352 2.359.977s.977 1.474.977 2.359-.352 1.734-.977 2.359-1.474.977-2.359.977zm0-8.477a5.14 5.14 0 1 0 0 10.28 5.14 5.14 0 1 0 0-10.28zm6.635-.093c0 .322-.128.631-.356.859s-.537.356-.859.356-.631-.128-.859-.356-.356-.537-.356-.859.128-.631.356-.859.537-.356.859-.356.631.128.859.356.356.537.356.859z"
  />
</svg>
