<svg
  xmlns="http://www.w3.org/2000/svg"
  fill="#000000"
  height="800"
  width="800"
  viewBox="0 0 224.512 224.512"
  xmlns:v="https://vecta.io/nano"
>
  <circle cx="89" cy="74.426" r="14.146" />
  <path
    d="M112.256 126.77a14.15 14.15 0 0 0-14.145 14.147 14.15 14.15 0 0 0 14.145 14.15 14.15 14.15 0 0 0 14.148-14.15 14.15 14.15 0 0 0-14.148-14.147z"
  />
  <circle cx="133.563" cy="93.729" r="14.146" />
  <path
    d="M195.287 16.574C168.741 5.576 140.776 0 112.169 0c-28.493 0-56.4 5.574-82.945 16.566a7.51 7.51 0 0 0-4.06 4.061 7.5 7.5 0 0 0 .001 5.742l11.992 28.932 68.167 164.586a7.5 7.5 0 0 0 6.926 4.625c.218 0 .437-.01.656-.029 2.85-.248 5.271-2.088 6.311-4.682l68.143-164.49 11.986-28.938c1.584-3.828-.233-8.215-4.059-9.799zM112.169 15c24.133 0 47.778 4.264 70.397 12.688l-6.246 15.08a184.74 184.74 0 0 0-64.138-11.445c-21.896 0-43.382 3.848-63.982 11.443L41.946 27.68C64.554 19.262 88.141 15 112.169 15zm.085 182.416L53.949 56.643c18.766-6.846 38.317-10.32 58.232-10.32 20 0 39.605 3.477 58.389 10.324l-58.316 140.769z"
  />
</svg>
