<svg
  xmlns="http://www.w3.org/2000/svg"
  width="800"
  height="800"
  viewBox="0 0 24 24"
  fill="none"
  xmlns:v="https://vecta.io/nano"
>
  <path
    d="M2 11.941c0 5.476 4.524 10 10 10s10-4.524 10-10S17.476 2 12 2 2 6.464 2 11.941zm13.691 4.643c-2.322-1.429-5.298-1.786-8.75-1.012-.833.119-.952-1.071-.238-1.19 3.81-.893 7.024-.476 9.643 1.131.655.417 0 1.429-.655 1.071zm1.012-2.679c-2.679-1.667-6.786-2.143-9.94-1.19-1.012.298-1.369-1.25-.417-1.488 3.631-1.071 8.095-.536 11.19 1.369.833.536 0 1.845-.833 1.31zM6.286 9.679c-1.012.357-1.667-1.369-.536-1.786C9.262 6.821 15.214 7 18.905 9.202c1.012.536.059 2.202-1.012 1.607-3.214-1.905-8.571-2.083-11.607-1.131z"
    fill="#000"
  />
</svg>
