<svg
  xmlns="http://www.w3.org/2000/svg"
  width="800"
  height="800"
  viewBox="0 0 64 64"
  stroke-width="3"
  stroke="#000000"
  fill="none"
  xmlns:v="https://vecta.io/nano"
>
  <path
    d="M39.93,55.72A24.86,24.86,0,1,1,56.86,32.15a37.24,37.24,0,0,1-.73,6"
  />
  <path
    d="M37.86 51.1A47 47 0 0 1 32 56.7M32 7a34.14 34.14 0 0 1 11.57 23 34.07 34.07 0 0 1 .09 4.85M32 7a34.09 34.09 0 0 0-11.69 25.46c0 16.2 7.28 21 11.66 24.24"
  />
  <path d="M10.37 19.9h43.38" />
  <path d="M32 6.99V56.7" />
  <path
    d="M11.05 45.48h25.99M7.14 32.46l49.72-.61M53.57 57L58 52.56l-8-8 4.55-2.91a.38.38 0 0 0-.12-.7l-15.29-3.58a.39.39 0 0 0-.46.46L42 53.41a.39.39 0 0 0 .71.13L45.57 49z"
  />
</svg>
