<svg
  xmlns="http://www.w3.org/2000/svg"
  width="128"
  height="128"
  xmlns:v="https://vecta.io/nano"
>
  <path
    d="M96.869 23.909v2.139c-2.821.501-4.957 1.388-6.407 2.659-2.077 1.889-4.526 4.779-6.132 8.671l-32.685 66.712H49.47L16.657 36.512c-1.528-3.469-3.606-5.588-4.233-6.359a10.28 10.28 0 0 0-3.615-2.804c-1.43-.674-3.36-1.108-5.789-1.301v-2.139h31.928v2.139c-3.683.347-5.439.964-6.537 1.85s-1.646 2.023-1.646 3.411c0 1.927.901 4.933 2.704 9.018l24.232 45.959 23.693-45.38c1.842-4.471 3.369-7.573 3.37-9.307 0-1.118-.568-2.187-1.705-3.208s-2.422-1.744-5.126-2.168c-.196-.038-.529-.096-.999-.173v-2.139h23.934z"
  />
  <path
    d="M124.98 23.909v2.139c-2.821.501-4.957 1.388-6.407 2.659-2.077 1.889-4.526 4.779-6.132 8.671l-28.685 66.712h-2.175L51.268 36.512c-1.528-3.469-3.606-5.588-4.233-6.359a10.28 10.28 0 0 0-3.615-2.804c-1.43-.674-2.726-1.108-5.155-1.301v-2.139h31.294v2.139c-3.683.347-5.439.964-6.537 1.85s-1.646 2.023-1.646 3.411c0 1.927.901 4.933 2.704 9.018l21.732 45.959 19.693-45.38c1.842-4.471 3.369-7.573 3.37-9.307 0-1.118-.568-2.187-1.704-3.208s-3.056-1.744-5.76-2.168c-.196-.038-.529-.096-.999-.173v-2.139h24.568z"
  />
</svg>
