<svg xmlns="http://www.w3.org/2000/svg" width="469.18" height="524.16">
    <defs>
        <style>
            .cls-2,.cls-4,.cls-5,.cls-7{fill:#fd1c5f}.cls-2{font-size:36.67px}.cls-2,.cls-5{font-family:CenturyGothic-Bold,Century Gothic;font-weight:700}.cls-4,.cls-5{font-size:35.25px}.cls-4{font-family:Wingdings-Regular,Wingdings}
        </style>
    </defs>
    <g id="Calque_2" data-name="Calque 2">
        <g id="Logos">
            <g id="Blanc">
                <path d="M431.16 144.44c-14-32.35 0-47-24.42-71.42s-47.62-18.93-84.85-36.63S271.42 2 234.59 2s-50.06 16.69-87.3 34.39S86.86 48.6 62.44 73 52.06 112.09 38 144.44s-36 52.5-36 91 12.82 34.8 25 71.43 0 50.67 20.14 79.36 41.52 20.14 71.12 37.24 60.75 48.83 116.3 48.83 86.69-31.74 116.29-48.83 51-8.55 71.12-37.24 7.94-42.73 20.15-79.36 25-33 25-71.43-21.92-58.64-35.96-91ZM234.59 451.25c-117.86 0-213.4-95.55-213.4-213.41s95.54-213.4 213.4-213.4S448 120 448 237.84s-95.55 213.41-213.41 213.41Z" style="stroke-width:4px;stroke:#fd1c5f;stroke-miterlimit:10;fill:#fd1c5f"/>
                <text class="cls-2" transform="rotate(27.21 -772.846 476.16)">C</text>
                <text class="cls-2" transform="rotate(16.52 -1370.758 775.327)">O</text>
                <text class="cls-2" transform="rotate(5.17 -4683.65 2433.71)">M</text>
                <text class="cls-2" transform="rotate(-6.32 4058.285 -1956.61)">M</text>
                <text class="cls-2" transform="rotate(-16.52 1618.917 -747.08)">U</text>
                <text class="cls-2" transform="rotate(-24.5 1135.596 -500.162)">Z</text>
                <text class="cls-2" transform="rotate(-30.13 926.646 -405.168)">’</text>
                <text transform="translate(154.55 519.1)" style="font-size:22.97px;letter-spacing:.1em;font-family:CenturyGothic-Bold,Century Gothic;font-weight:700;fill:#fd1c5f">TALENT INSIDE.</text>
                <text class="cls-4" transform="rotate(-43.39 668.136 -261.259)"></text>
                <text class="cls-5" transform="rotate(-50.93 575.625 -220.516)"> </text>
                <text class="cls-4" transform="matrix(.52 -.85 .85 .52 396.83 349.02)"></text>
                <text class="cls-5" transform="rotate(-65.8 455.779 -157.506)"> </text>
                <text class="cls-4" transform="rotate(-73.7 411.935 -128.872)"></text>
                <text class="cls-5" transform="rotate(-81.38 372.408 -112.692)"> </text>
                <text class="cls-4" transform="rotate(-88.91 343.714 -93.592)"></text>
                <text class="cls-5" transform="rotate(-96.4 313.77 -82.066)"> </text>
                <text class="cls-4" transform="rotate(-104.02 291.905 -66.983)"></text>
                <text class="cls-5" transform="rotate(-111.67 267.17 -57.219)"> </text>
                <text class="cls-4" transform="rotate(-119.29 249.634 -44.955)"></text>
                <text class="cls-5" transform="rotate(-127 228.405 -36.652)"> </text>
                <text class="cls-4" transform="matrix(-.7 -.71 .71 -.7 382.01 107.68)"></text>
                <text class="cls-5" transform="matrix(-.79 -.62 .62 -.79 359.42 86.14)"> </text>
                <text class="cls-4" transform="rotate(-149.52 181.445 -9.886)"></text>
                <text class="cls-5" transform="rotate(-157.14 163.62 -2.526)"> </text>
                <text class="cls-4" transform="matrix(-.96 -.26 .26 -.96 296.08 50.99)"></text>
                <text class="cls-5" transform="rotate(-172.41 134.284 13.104)"> </text>
                <text class="cls-4" transform="rotate(179.07 122.217 21.633)"></text>
                <text class="cls-5" transform="rotate(172.57 105.536 28.177)"> </text>
                <text class="cls-4" transform="rotate(164.95 93.633 35.53)"></text>
                <text class="cls-5" transform="rotate(157 76.165 43.955)"> </text>
                <text class="cls-4" transform="matrix(-.86 .5 -.5 -.86 144.37 63.06)"></text>
                <text class="cls-5" transform="rotate(142.2 45.436 60.031)"> </text>
                <text class="cls-4" transform="matrix(-.7 .71 -.71 -.7 101.81 92.78)"></text>
                <text class="cls-5" transform="rotate(127 11.397 78.042)"> </text>
                <text class="cls-4" transform="rotate(119.3 -4.475 86.354)"></text>
                <text class="cls-5" transform="rotate(111.83 -27.208 98.424)"> </text>
                <text class="cls-4" transform="rotate(104.18 -46.65 108.028)"></text>
                <text class="cls-5" transform="matrix(-.11 .99 -.99 -.11 40.05 210.28)"> </text>
                <text class="cls-4" transform="rotate(89.05 -98.396 134.833)"></text>
                <text class="cls-5" transform="rotate(81.4 -132.621 153.877)"> </text>
                <text class="cls-4" transform="rotate(73.91 -166.292 169.9)"></text>
                <text class="cls-5" transform="rotate(66.26 -212.897 196.56)"> </text>
                <text class="cls-4" transform="rotate(58.65 -264.051 220.285)"></text>
                <text class="cls-5" transform="rotate(51.09 -334.476 260.857)"> </text>
                <text class="cls-4" transform="matrix(.72 .69 -.69 .72 91.92 373.2)"></text>
                <path d="M263.69 91c-31.16-6.84-62.16-1.84-91.16 10.16-38 17-67 50-80 90-9 30-10 62 0 92 11 31 29 58 58 77 45 30 99 34 146 13a148.93 148.93 0 0 0 86-115c6-50-12-102-50.82-134" style="fill:none;stroke-width:6px;stroke:#fd1c5f;stroke-miterlimit:10"/>
                <path class="cls-7" d="m266.48 88.58-1.08-.26c-1-.22-1.93-.4-2.84-.55.05 2 .11 4.08.16 6.12l.51.11.5.11c1-.8 2.14-1.62 3.34-2.44s2.13-1.4 3.14-2c-1.55-.52-2.81-.86-3.73-1.09ZM326.25 124c.92.59 1.91 1.26 2.92 2s1.79 1.43 2.55 2.12q1.8-2.37 3.59-4.75c-.51-.48-1.06-1-1.65-1.46a35.58 35.58 0 0 0-4.22-3c-.4.67-.81 1.35-1.23 2-.65 1.09-1.31 2.09-1.96 3.09ZM218.52 198.82c-.26 3.41-3.14 50.5 23.76 80.3a116.25 116.25 0 0 0 43.24 29c1.94.73 3.56 1.29 4.67 1.66a81.17 81.17 0 0 1-5.74 11 90.5 90.5 0 0 1-6.93 9.46c-4.49 5.21-12.3 14.3-25.32 18.06-14 4-26-.3-30.42-1.91a59.12 59.12 0 0 1-18.66-11.2c-6.52-5.59-7.28-8-17.66-18.92-3.19-3.36-6.64-6.48-10-9.67-6-5.72-9.76-12.87-12.21-20.63-1.22-3.88-3.41-11.13-7.12-25.87-3.28-13-4.18-17.54-4.59-19.66-1-5.37-1.65-9.54-2.86-17.88a98.87 98.87 0 0 1-1.18-10.5 74 74 0 0 1 .39-12.19c1.47-11.07 6.94-19.36 9.27-22.81a61.34 61.34 0 0 1 20.11-18.67A65.11 65.11 0 0 0 172 164a55.57 55.57 0 0 0-7.39 11.15c-1.72 3.51-3.42 7-4 11.77-.25 2.18-1.43 12.31 2.61 14.32 5.43 2.69 15.7-11.57 25-9.19a14.54 14.54 0 0 1 3.45 1.38c3.52 2.13 3.74 4.93 7.16 7.78l.17.14a16.76 16.76 0 0 0 4.39 2.48c2.05.73 8.49-.15 15.13-5.01Zm-7.77 58.85a26.39 26.39 0 0 0-3.66-3.5c-9.52-7.51-21.74-6.44-27.31-4.5a15 15 0 0 0-5.53 3.19 14.32 14.32 0 0 0-3.08 4.1 23.35 23.35 0 0 0 4.41 4.7 25.09 25.09 0 0 0 35.17-4ZM245.63 191.29c-3.48-14.81-5.63-35.42.67-57.75 2.33-8.24 5-17.48 12.74-26.63 13.53-16.09 32.4-20 39.61-21.07a38.41 38.41 0 0 0-7.5 16.87 53.56 53.56 0 0 1 21.69-4.38 39.37 39.37 0 0 0-5.62 10 38.85 38.85 0 0 0-1.92 6.85 53.87 53.87 0 0 1 21.7-4.37 94.42 94.42 0 0 1-5.25 9.06 97.54 97.54 0 0 1-16.85 19.43c-11.93 10.64-19.42 12.59-29.56 19.45-8.51 5.75-19.61 15.45-29.71 32.54Z"/>
                <path class="cls-7" d="M166 195.41a49.79 49.79 0 0 1 7.67-27.17 60.58 60.58 0 0 1 12.5-13.77c9.27-7.28 28.44-12.57 51.44-9.41a75.75 75.75 0 0 0-15.51 26.25 88.34 88.34 0 0 0-35.68 9.56A87.31 87.31 0 0 0 166 195.41ZM249.76 250.72a27.81 27.81 0 0 1 3.49-6.65 28.45 28.45 0 0 1 13.4-10c3.19-1.15 10.49-3.78 16.92-.33a14.08 14.08 0 0 1 2.79 1.95 25.23 25.23 0 0 1-6.58 11.29 25.06 25.06 0 0 1-30 3.79ZM287 221.21a42.27 42.27 0 0 0-19.23-.82 35.89 35.89 0 0 0-7.3 1.78 32.87 32.87 0 0 0-5.35 2.68c-6.8 4.13-8.26 7.87-11.74 7.52a6.72 6.72 0 0 1-3.59-1.64 38.9 38.9 0 0 1 13.15-11 34 34 0 0 1 15.4-4.1 33.47 33.47 0 0 1 18.66 5.58Z"/>
            </g>
        </g>
    </g>
</svg>
